<svg width="118" height="32" viewBox="0 0 118 32" fill="none" xmlns="http://www.w3.org/2000/svg">
<g clip-path="url(#clip0_4351_6184)">
<path d="M31.6914 8.91901H39.0854V31.4207H31.6914V8.91901ZM31.6914 0H39.0854V5.79995H31.6914V0Z" fill="#FF4F00"/>
<path d="M110.365 8.91901H117.759V31.4207H110.365V8.91901ZM110.365 0H117.759V5.79995H110.365V0Z" fill="#FF4F00"/>
<path d="M42.617 8.919H49.7352V11.9935H49.8731C51.5971 9.57251 53.8191 8.25806 57.0373 8.25806C62.1173 8.25806 65.1132 11.7707 65.1132 16.7835V31.4207H57.7192V18.239C57.7192 15.8626 56.4932 14.2362 54.0873 14.2362C51.6814 14.2362 50.0034 16.2116 50.0034 18.9817V31.4207H42.6094V8.919H42.617Z" fill="#FF4F00"/>
<path d="M82.3449 23.3855V20.7046C81.3948 21.1873 80.031 21.5363 78.5368 21.8928C75.6788 22.5092 74.4989 23.2147 74.4989 24.9227C74.4989 26.7273 75.8551 27.4254 77.671 27.4254C80.4371 27.4254 82.3449 25.799 82.3449 23.3855ZM67.3807 25.1381C67.3807 20.1699 71.4647 18.6772 76.2688 18.0608C80.621 17.5335 82.1611 17.0954 82.1611 15.5581C82.1611 14.11 81.2109 13.1446 78.9889 13.1446C76.629 13.1446 75.449 14.1546 75.2268 16.0483H68.4228C68.6067 11.8747 71.9167 8.31006 78.9429 8.31006C82.4369 8.31006 84.7892 8.92644 86.4672 10.1592C88.4594 11.5628 89.4171 13.761 89.4171 16.5756V27.9155C89.4171 29.7201 89.601 30.7301 90.237 31.1237V31.4282H83.0728C82.7127 30.9455 82.4829 30.0692 82.299 28.9255H82.207C80.8432 30.8118 78.805 32 75.3111 32C70.6831 32 67.373 29.579 67.373 25.1455" fill="#FF4F00"/>
<path d="M92.9959 8.91898H100.068V12.4391H100.206C101.838 9.75816 103.746 8.56995 106.558 8.56995C107.24 8.56995 107.692 8.6145 108.006 8.74818V14.9046H107.822C103.286 14.2882 100.382 16.4418 100.382 21.3209V31.4282H92.9883V8.91898H92.9959Z" fill="#FF4F00"/>
<path d="M14.152 15.8848C14.9949 14.1693 17.1173 10.0774 17.1173 10.0774C21.1936 10.6864 26.8406 12.944 27.9286 18.3503C28.7945 22.6427 27.1241 26.7049 22.2663 29.3487C19.8527 30.6631 17.2169 31.2647 14.5045 31.3835C7.70049 32.1336 0 28.0639 0 28.0639C0.911799 26.1405 2.68942 22.4125 2.68942 22.4125C2.68942 22.4125 6.89596 24.3582 9.30188 24.7518C12.2365 25.3088 14.7037 25.4127 17.4698 24.477C19.6228 23.7492 20.7645 22.3308 20.7568 20.5188C20.7568 18.6771 19.6688 17.3997 17.3855 16.672C16.3128 16.3304 14.152 15.8848 14.152 15.8848Z" fill="#FF4F00"/>
<path d="M11.2936 21.4026C7.21731 20.7937 1.57029 18.5361 0.482259 13.1297C-0.383567 8.82986 1.28679 4.77509 6.13695 2.12389C8.55053 0.809434 11.194 0.207902 13.9064 0.0965072C20.7104 -0.653551 28.4109 3.4235 28.4109 3.4235C27.4991 5.34691 25.7215 9.07493 25.7215 9.07493C25.7215 9.07493 21.5149 7.12923 19.109 6.73564C16.1744 6.17866 13.7072 6.07469 10.9411 7.01041C8.78806 7.73819 7.65406 9.15662 7.65406 10.9686C7.65406 12.8104 8.74975 14.0877 11.0254 14.8155C12.0981 15.1571 13.2091 15.3724 14.2972 15.6472L11.2936 21.41V21.4026Z" fill="#FF4F00"/>
</g>
<defs>
<clipPath id="clip0_4351_6184">
<rect width="117.76" height="32" fill="white"/>
</clipPath>
</defs>
</svg>
